<mxfile host="app.diagrams.net" modified="2023-06-01T22:34:16.181Z" agent="Mozilla/5.0 (Windows NT 10.0; Win64; x64) AppleWebKit/537.36 (KHTML, like Gecko) Chrome/113.0.0.0 Safari/537.36 Edg/113.0.1774.57" version="21.3.7" etag="6CvE4L8jMjEjN70Dgamf" type="github">
  <diagram name="Page-1" id="dMQsX5UrfEqCJF8x4tUX">
    <mxGraphModel>
      <root>
        <mxCell id="0" />
        <mxCell id="1" parent="0" />
      </root>
    </mxGraphModel>
  </diagram>
</mxfile>
